<svg width="396" height="55" viewBox="0 0 396 55" fill="none" xmlns="http://www.w3.org/2000/svg">
<path d="M0.317255 6.50008C-0.682745 8.90008 0.817254 16.3001 2.91726 19.7001C4.21726 21.7171 5.83926 23.5071 7.71726 25.0001L10.7172 27.2001L7.21726 30.3001C2.41726 34.5001 -0.282749 40.2001 0.117251 45.3001L0.417254 49.5001L19.3172 49.8001C32.8172 50.0001 38.5172 49.7001 39.6172 48.9001C42.7172 46.3001 38.4172 33.9001 32.9172 29.9001L29.9172 27.7001L33.4172 24.3001C37.5172 20.3001 39.4172 16.9001 40.3172 11.9001C41.6172 4.90007 41.9172 5.00008 20.3172 5.00008C3.81725 5.00008 0.717255 5.20008 0.317255 6.50008ZM33.4172 13.7001C32.5172 17.6001 29.1172 21.9001 26.5172 22.6001C21.0172 23.9001 21.2172 29.6001 27.0172 32.5001C29.9172 34.1001 33.9172 39.3001 33.9172 41.7001C33.9172 42.7001 30.5172 43.0001 20.4172 43.0001C9.31726 43.0001 6.91726 42.7001 6.91726 41.5001C6.91726 38.4001 9.31726 35.2001 13.5172 32.5001C19.2172 28.9001 19.4172 26.0001 14.1172 22.6001C9.81725 19.9001 6.91726 16.1001 6.91726 13.0001C6.91726 11.1001 7.51726 11.0001 20.5172 11.0001H34.1172L33.4172 13.7001Z" fill="url(#paint0_linear_27_56)"/>
<path d="M69.8975 43.6C67.0175 43.6 64.5508 42.9733 62.4975 41.72C60.4441 40.4533 58.8641 38.6933 57.7575 36.44C56.6641 34.1867 56.1175 31.5733 56.1175 28.6C56.1175 25.6267 56.6641 23.0133 57.7575 20.76C58.8641 18.5067 60.4441 16.7533 62.4975 15.5C64.5508 14.2333 67.0175 13.6 69.8975 13.6C73.2175 13.6 75.9841 14.4333 78.1975 16.1C80.4108 17.7533 81.9641 19.9867 82.8575 22.8L77.9975 24.14C77.4375 22.26 76.4841 20.7933 75.1375 19.74C73.7908 18.6733 72.0441 18.14 69.8975 18.14C67.9641 18.14 66.3508 18.5733 65.0575 19.44C63.7775 20.3067 62.8108 21.5267 62.1575 23.1C61.5175 24.66 61.1908 26.4933 61.1775 28.6C61.1775 30.7067 61.4975 32.5467 62.1375 34.12C62.7908 35.68 63.7641 36.8933 65.0575 37.76C66.3508 38.6267 67.9641 39.06 69.8975 39.06C72.0441 39.06 73.7908 38.5267 75.1375 37.46C76.4841 36.3933 77.4375 34.9267 77.9975 33.06L82.8575 34.4C81.9641 37.2133 80.4108 39.4533 78.1975 41.12C75.9841 42.7733 73.2175 43.6 69.8975 43.6ZM87.2487 43V21.4H91.5087V26.66L90.9887 25.98C91.2554 25.26 91.6087 24.6067 92.0487 24.02C92.5021 23.42 93.0421 22.9267 93.6687 22.54C94.2021 22.18 94.7887 21.9 95.4287 21.7C96.0821 21.4867 96.7487 21.36 97.4287 21.32C98.1087 21.2667 98.7687 21.2933 99.4087 21.4V25.9C98.7687 25.7133 98.0287 25.6533 97.1887 25.72C96.3621 25.7867 95.6154 26.02 94.9487 26.42C94.2821 26.78 93.7354 27.24 93.3087 27.8C92.8954 28.36 92.5887 29 92.3887 29.72C92.1887 30.4267 92.0887 31.1933 92.0887 32.02V43H87.2487ZM112.375 43.6C110.215 43.6 108.328 43.1133 106.715 42.14C105.101 41.1667 103.848 39.8267 102.955 38.12C102.075 36.4 101.635 34.4267 101.635 32.2C101.635 29.9333 102.088 27.9467 102.995 26.24C103.901 24.5333 105.161 23.2 106.775 22.24C108.388 21.28 110.255 20.8 112.375 20.8C114.548 20.8 116.441 21.2867 118.055 22.26C119.668 23.2333 120.921 24.58 121.815 26.3C122.708 28.0067 123.155 29.9733 123.155 32.2C123.155 34.44 122.701 36.42 121.795 38.14C120.901 39.8467 119.648 41.1867 118.035 42.16C116.421 43.12 114.535 43.6 112.375 43.6ZM112.375 39.08C114.295 39.08 115.721 38.44 116.655 37.16C117.588 35.88 118.055 34.2267 118.055 32.2C118.055 30.1067 117.581 28.44 116.635 27.2C115.688 25.9467 114.268 25.32 112.375 25.32C111.081 25.32 110.015 25.6133 109.175 26.2C108.348 26.7733 107.735 27.58 107.335 28.62C106.935 29.6467 106.735 30.84 106.735 32.2C106.735 34.2933 107.208 35.9667 108.155 37.22C109.115 38.46 110.521 39.08 112.375 39.08ZM142.501 43V32.6C142.501 31.92 142.455 31.1667 142.361 30.34C142.268 29.5133 142.048 28.72 141.701 27.96C141.368 27.1867 140.861 26.5533 140.181 26.06C139.515 25.5667 138.608 25.32 137.461 25.32C136.848 25.32 136.241 25.42 135.641 25.62C135.041 25.82 134.495 26.1667 134.001 26.66C133.521 27.14 133.135 27.8067 132.841 28.66C132.548 29.5 132.401 30.58 132.401 31.9L129.541 30.68C129.541 28.84 129.895 27.1733 130.601 25.68C131.321 24.1867 132.375 23 133.761 22.12C135.148 21.2267 136.855 20.78 138.881 20.78C140.481 20.78 141.801 21.0467 142.841 21.58C143.881 22.1133 144.708 22.7933 145.321 23.62C145.935 24.4467 146.388 25.3267 146.681 26.26C146.975 27.1933 147.161 28.08 147.241 28.92C147.335 29.7467 147.381 30.42 147.381 30.94V43H142.501ZM127.521 43V21.4H131.821V28.1H132.401V43H127.521ZM161.789 43.6C159.629 43.6 157.742 43.1133 156.129 42.14C154.515 41.1667 153.262 39.8267 152.369 38.12C151.489 36.4 151.049 34.4267 151.049 32.2C151.049 29.9333 151.502 27.9467 152.409 26.24C153.315 24.5333 154.575 23.2 156.189 22.24C157.802 21.28 159.669 20.8 161.789 20.8C163.962 20.8 165.855 21.2867 167.469 22.26C169.082 23.2333 170.335 24.58 171.229 26.3C172.122 28.0067 172.569 29.9733 172.569 32.2C172.569 34.44 172.115 36.42 171.209 38.14C170.315 39.8467 169.062 41.1867 167.449 42.16C165.835 43.12 163.949 43.6 161.789 43.6ZM161.789 39.08C163.709 39.08 165.135 38.44 166.069 37.16C167.002 35.88 167.469 34.2267 167.469 32.2C167.469 30.1067 166.995 28.44 166.049 27.2C165.102 25.9467 163.682 25.32 161.789 25.32C160.495 25.32 159.429 25.6133 158.589 26.2C157.762 26.7733 157.149 27.58 156.749 28.62C156.349 29.6467 156.149 30.84 156.149 32.2C156.149 34.2933 156.622 35.9667 157.569 37.22C158.529 38.46 159.935 39.08 161.789 39.08ZM184.807 43.6C182.141 43.6 179.974 43 178.307 41.8C176.641 40.6 175.627 38.9133 175.267 36.74L180.187 35.98C180.441 37.0467 181.001 37.8867 181.867 38.5C182.734 39.1133 183.827 39.42 185.147 39.42C186.307 39.42 187.201 39.1933 187.827 38.74C188.467 38.2733 188.787 37.64 188.787 36.84C188.787 36.3467 188.667 35.9533 188.427 35.66C188.201 35.3533 187.694 35.06 186.907 34.78C186.121 34.5 184.914 34.1467 183.287 33.72C181.474 33.24 180.034 32.7267 178.967 32.18C177.901 31.62 177.134 30.96 176.667 30.2C176.201 29.44 175.967 28.52 175.967 27.44C175.967 26.0933 176.321 24.92 177.027 23.92C177.734 22.92 178.721 22.1533 179.987 21.62C181.254 21.0733 182.747 20.8 184.467 20.8C186.147 20.8 187.634 21.06 188.927 21.58C190.234 22.1 191.287 22.84 192.087 23.8C192.887 24.76 193.381 25.8867 193.567 27.18L188.647 28.06C188.527 27.14 188.107 26.4133 187.387 25.88C186.681 25.3467 185.734 25.0467 184.547 24.98C183.414 24.9133 182.501 25.0867 181.807 25.5C181.114 25.9 180.767 26.4667 180.767 27.2C180.767 27.6133 180.907 27.9667 181.187 28.26C181.467 28.5533 182.027 28.8467 182.867 29.14C183.721 29.4333 184.987 29.7933 186.667 30.22C188.387 30.66 189.761 31.1667 190.787 31.74C191.827 32.3 192.574 32.9733 193.027 33.76C193.494 34.5467 193.727 35.5 193.727 36.62C193.727 38.7933 192.934 40.5 191.347 41.74C189.774 42.98 187.594 43.6 184.807 43.6ZM204.116 43L213.196 14.2H220.256L229.336 43H224.376L216.136 17.16H217.216L209.076 43H204.116ZM209.176 36.76V32.26H224.296V36.76H209.176ZM241.052 43.62C239.452 43.62 238.132 43.3533 237.092 42.82C236.052 42.2867 235.225 41.6067 234.612 40.78C233.999 39.9533 233.545 39.0733 233.252 38.14C232.959 37.2067 232.765 36.3267 232.672 35.5C232.592 34.66 232.552 33.98 232.552 33.46V21.4H237.432V31.8C237.432 32.4667 237.479 33.22 237.572 34.06C237.665 34.8867 237.879 35.6867 238.212 36.46C238.559 37.22 239.065 37.8467 239.732 38.34C240.412 38.8333 241.325 39.08 242.472 39.08C243.085 39.08 243.692 38.98 244.292 38.78C244.892 38.58 245.432 38.24 245.912 37.76C246.405 37.2667 246.799 36.5933 247.092 35.74C247.385 34.8867 247.532 33.8067 247.532 32.5L250.392 33.72C250.392 35.56 250.032 37.2267 249.312 38.72C248.605 40.2133 247.559 41.4067 246.172 42.3C244.785 43.18 243.079 43.62 241.052 43.62ZM248.112 43V36.3H247.532V21.4H252.372V43H248.112ZM270.651 43C269.224 43.2667 267.824 43.38 266.451 43.34C265.091 43.3133 263.871 43.0667 262.791 42.6C261.711 42.12 260.891 41.3667 260.331 40.34C259.838 39.4067 259.578 38.4533 259.551 37.48C259.524 36.5067 259.511 35.4067 259.511 34.18V15.4H264.311V33.9C264.311 34.7667 264.318 35.5267 264.331 36.18C264.358 36.8333 264.498 37.3667 264.751 37.78C265.231 38.58 265.998 39.0267 267.051 39.12C268.104 39.2133 269.304 39.16 270.651 38.96V43ZM255.591 25.18V21.4H270.651V25.18H255.591ZM283.742 43.6C281.582 43.6 279.695 43.1133 278.082 42.14C276.469 41.1667 275.215 39.8267 274.322 38.12C273.442 36.4 273.002 34.4267 273.002 32.2C273.002 29.9333 273.455 27.9467 274.362 26.24C275.269 24.5333 276.529 23.2 278.142 22.24C279.755 21.28 281.622 20.8 283.742 20.8C285.915 20.8 287.809 21.2867 289.422 22.26C291.035 23.2333 292.289 24.58 293.182 26.3C294.075 28.0067 294.522 29.9733 294.522 32.2C294.522 34.44 294.069 36.42 293.162 38.14C292.269 39.8467 291.015 41.1867 289.402 42.16C287.789 43.12 285.902 43.6 283.742 43.6ZM283.742 39.08C285.662 39.08 287.089 38.44 288.022 37.16C288.955 35.88 289.422 34.2267 289.422 32.2C289.422 30.1067 288.949 28.44 288.002 27.2C287.055 25.9467 285.635 25.32 283.742 25.32C282.449 25.32 281.382 25.6133 280.542 26.2C279.715 26.7733 279.102 27.58 278.702 28.62C278.302 29.6467 278.102 30.84 278.102 32.2C278.102 34.2933 278.575 35.9667 279.522 37.22C280.482 38.46 281.889 39.08 283.742 39.08ZM324.868 43V29.88C324.868 28.4 324.502 27.2467 323.768 26.42C323.035 25.58 322.042 25.16 320.788 25.16C320.015 25.16 319.322 25.34 318.708 25.7C318.095 26.0467 317.608 26.5667 317.248 27.26C316.888 27.94 316.708 28.7533 316.708 29.7L314.568 28.44C314.555 26.9467 314.888 25.6333 315.568 24.5C316.262 23.3533 317.195 22.46 318.368 21.82C319.542 21.18 320.848 20.86 322.288 20.86C324.675 20.86 326.502 21.58 327.768 23.02C329.048 24.4467 329.688 26.3267 329.688 28.66V43H324.868ZM298.888 43V21.4H303.148V28.1H303.748V43H298.888ZM311.908 43V29.94C311.908 28.4333 311.542 27.26 310.808 26.42C310.075 25.58 309.075 25.16 307.808 25.16C306.582 25.16 305.595 25.58 304.848 26.42C304.115 27.26 303.748 28.3533 303.748 29.7L301.588 28.26C301.588 26.86 301.935 25.6 302.628 24.48C303.322 23.36 304.255 22.48 305.428 21.84C306.615 21.1867 307.942 20.86 309.408 20.86C311.022 20.86 312.368 21.2067 313.448 21.9C314.542 22.58 315.355 23.5133 315.888 24.7C316.435 25.8733 316.708 27.2 316.708 28.68V43H311.908ZM340.945 43.6C339.385 43.6 338.065 43.3067 336.985 42.72C335.905 42.12 335.085 41.3267 334.525 40.34C333.978 39.3533 333.705 38.2667 333.705 37.08C333.705 36.04 333.878 35.1067 334.225 34.28C334.572 33.44 335.105 32.72 335.825 32.12C336.545 31.5067 337.478 31.0067 338.625 30.62C339.492 30.34 340.505 30.0867 341.665 29.86C342.838 29.6333 344.105 29.4267 345.465 29.24C346.838 29.04 348.272 28.8267 349.765 28.6L348.045 29.58C348.058 28.0867 347.725 26.9867 347.045 26.28C346.365 25.5733 345.218 25.22 343.605 25.22C342.632 25.22 341.692 25.4467 340.785 25.9C339.878 26.3533 339.245 27.1333 338.885 28.24L334.485 26.86C335.018 25.0333 336.032 23.5667 337.525 22.46C339.032 21.3533 341.058 20.8 343.605 20.8C345.525 20.8 347.212 21.1133 348.665 21.74C350.132 22.3667 351.218 23.3933 351.925 24.82C352.312 25.58 352.545 26.36 352.625 27.16C352.705 27.9467 352.745 28.8067 352.745 29.74V43H348.525V38.32L349.225 39.08C348.252 40.64 347.112 41.7867 345.805 42.52C344.512 43.24 342.892 43.6 340.945 43.6ZM341.905 39.76C342.998 39.76 343.932 39.5667 344.705 39.18C345.478 38.7933 346.092 38.32 346.545 37.76C347.012 37.2 347.325 36.6733 347.485 36.18C347.738 35.5667 347.878 34.8667 347.905 34.08C347.945 33.28 347.965 32.6333 347.965 32.14L349.445 32.58C347.992 32.8067 346.745 33.0067 345.705 33.18C344.665 33.3533 343.772 33.52 343.025 33.68C342.278 33.8267 341.618 33.9933 341.045 34.18C340.485 34.38 340.012 34.6133 339.625 34.88C339.238 35.1467 338.938 35.4533 338.725 35.8C338.525 36.1467 338.425 36.5533 338.425 37.02C338.425 37.5533 338.558 38.0267 338.825 38.44C339.092 38.84 339.478 39.16 339.985 39.4C340.505 39.64 341.145 39.76 341.905 39.76ZM370.612 43C369.185 43.2667 367.785 43.38 366.412 43.34C365.052 43.3133 363.832 43.0667 362.752 42.6C361.672 42.12 360.852 41.3667 360.292 40.34C359.799 39.4067 359.539 38.4533 359.512 37.48C359.485 36.5067 359.472 35.4067 359.472 34.18V15.4H364.272V33.9C364.272 34.7667 364.279 35.5267 364.292 36.18C364.319 36.8333 364.459 37.3667 364.712 37.78C365.192 38.58 365.959 39.0267 367.012 39.12C368.065 39.2133 369.265 39.16 370.612 38.96V43ZM355.552 25.18V21.4H370.612V25.18H355.552ZM383.983 43.6C381.796 43.6 379.876 43.1267 378.223 42.18C376.569 41.2333 375.276 39.92 374.343 38.24C373.423 36.56 372.963 34.6267 372.963 32.44C372.963 30.08 373.416 28.0333 374.323 26.3C375.229 24.5533 376.489 23.2 378.103 22.24C379.716 21.28 381.583 20.8 383.703 20.8C385.943 20.8 387.843 21.3267 389.403 22.38C390.976 23.42 392.143 24.8933 392.903 26.8C393.663 28.7067 393.949 30.9533 393.763 33.54H388.983V31.78C388.969 29.4333 388.556 27.72 387.743 26.64C386.929 25.56 385.649 25.02 383.903 25.02C381.929 25.02 380.463 25.6333 379.503 26.86C378.543 28.0733 378.063 29.8533 378.063 32.2C378.063 34.3867 378.543 36.08 379.503 37.28C380.463 38.48 381.863 39.08 383.703 39.08C384.889 39.08 385.909 38.82 386.763 38.3C387.629 37.7667 388.296 37 388.763 36L393.523 37.44C392.696 39.3867 391.416 40.9 389.683 41.98C387.963 43.06 386.063 43.6 383.983 43.6ZM376.543 33.54V29.9H391.403V33.54H376.543Z" fill="url(#paint1_linear_27_56)"/>
<defs>
<linearGradient id="paint0_linear_27_56" x1="40.8106" y1="27.43" x2="0" y2="27.43" gradientUnits="userSpaceOnUse">
<stop stop-color="#3D3D3D"/>
<stop offset="1" stop-color="#050505"/>
</linearGradient>
<linearGradient id="paint1_linear_27_56" x1="54.9175" y1="27.5" x2="395.917" y2="27.5" gradientUnits="userSpaceOnUse">
<stop stop-color="#E87811"/>
<stop offset="1" stop-color="#E89548"/>
</linearGradient>
</defs>
</svg>
